<?xml version="1.0" encoding="UTF-8"?>
<svg id="Logo" xmlns="http://www.w3.org/2000/svg" viewBox="0 0 609.495 157.62">
  <defs>
    <style>
      .cls-1 {
        fill: #fff;
      }
    </style>
  </defs>
  <g>
    <path class="cls-1" d="M213.88,35.83c0,.46-.14.89-.38,1.24l-75.4,119.54c-.01.01-.01.021-.02.03,0,0,0,.01-.01.01-.4.58-1.07.97-1.83.97h-42.4c-.76,0-1.44-.38-1.84-.97-.04-.06-.08-.12-.12-.19-.17-.31-.27-.67-.27-1.06,0-.38.1-.74.27-1.06.04-.07.08-.13.12-.19L188.5,1.16c.04-.07.08-.13.12-.19.4-.59,1.08-.97,1.84-.97.75,0,1.42.38,1.83.96l21.2,33.61c.04.06.08.13.12.2.17.31.27.67.27,1.06Z"/>
    <path class="cls-1" d="M289.31,155.4c0,1.23-1,2.22-2.22,2.22h-42.4c-.76,0-1.44-.38-1.84-.97-.04-.06-.08-.12-.12-.19l-45.81-72.61c-.04-.06-.08-.12-.12-.19-.17-.31-.27-.67-.27-1.06,0-.38.1-.74.27-1.06.04-.07.08-.13.12-.19l21.08-33.42c.04-.07.08-.13.12-.19.4-.59,1.08-.97,1.84-.97.75,0,1.42.38,1.83.96l67.13,106.41c.04.06.08.13.12.2.17.31.27.67.27,1.06Z"/>
    <path class="cls-1" d="M128,78.459c0,.45-.13.87-.36,1.21-.01.01-.01.02-.02.03l-21.18,33.58c-.01.01-.01.02-.02.03,0,0,0,.01-.01.01-.4.58-1.07.97-1.83.97s-1.44-.38-1.84-.97c-.04-.06-.08-.12-.12-.19l-14.37-22.76-41.69,66.08c-.04.07-.08.14-.12.2-.4.58-1.07.97-1.83.97h-.02l-42.36-.02c-1.23,0-2.23-.99-2.23-2.22,0-.46.14-.89.38-1.24L86.41,17.729c.4-.59,1.07-.98,1.84-.98s1.44.39,1.84.98l37.52,59.47c.04.06.08.13.12.2.17.311.27.67.27,1.061Z"/>
  </g>
  <g>
    <path class="cls-1" d="M377.844,156.862l-29.816-34.183h-19.652v32.792c0,1.186-.987,2.148-2.204,2.148h-25.411c-1.217,0-2.204-.962-2.204-2.148V51.492c0-1.186.987-2.148,2.204-2.148h59.757c27.262,0,48.433,12.846,48.433,36.593,0,17.365-11.271,29.469-28.024,34.219l30.471,33.899c1.248,1.389.236,3.564-1.658,3.564h-30.215c-.647,0-1.261-.277-1.68-.757ZM358.231,100.713c12.995,0,22.573-3.451,22.573-14.182s-9.578-14.182-22.573-14.182h-30.008v28.364h30.008Z"/>
    <path class="cls-1" d="M558.475,50.989l-.028,103.979c0,1.186-.987,2.148-2.204,2.148h-25.357c-1.218,0-2.205-.962-2.204-2.149l.028-68.576-36.688,48.517h-1.523l-36.687-48.517-.028,68.578c0,1.186-.987,2.147-2.204,2.147h-24.446c-1.218,0-2.205-.962-2.204-2.149l.028-103.979c0-1.186.987-2.148,2.204-2.148h29.463c.719,0,1.393.342,1.805.915l33.592,46.711,33.896-46.719c.413-.569,1.084-.908,1.8-.908h28.553c1.218,0,2.205.962,2.204,2.149Z"/>
    <path class="cls-1" d="M579.549,155.47l.028-103.979c0-1.186.987-2.148,2.204-2.148h25.51c1.218,0,2.205.962,2.204,2.149l-.028,103.979c0,1.186-.987,2.148-2.204,2.148h-25.51c-1.218,0-2.205-.962-2.204-2.149Z"/>
  </g>
</svg>